<?xml version="1.0" encoding="UTF-8" standalone="no"?>
<!-- Created with Inkscape (http://www.inkscape.org/) -->

<svg
   width="1000"
   height="1000"
   viewBox="0 0 264.58333 264.58333"
   version="1.1"
   id="svg1"
   inkscape:version="1.3 (0e150ed, 2023-07-21)"
   sodipodi:docname="logo-astice-fronte-cerchio-sfondobianco.svg"
   xml:space="preserve"
   inkscape:export-filename="logo-astice-fronte-cerchio-sfondobianco.png"
   inkscape:export-xdpi="300"
   inkscape:export-ydpi="300"
   xmlns:inkscape="http://www.inkscape.org/namespaces/inkscape"
   xmlns:sodipodi="http://sodipodi.sourceforge.net/DTD/sodipodi-0.dtd"
   xmlns="http://www.w3.org/2000/svg"
   xmlns:svg="http://www.w3.org/2000/svg"><sodipodi:namedview
     id="namedview1"
     pagecolor="#ffffff"
     bordercolor="#666666"
     borderopacity="1.0"
     inkscape:showpageshadow="2"
     inkscape:pageopacity="0.0"
     inkscape:pagecheckerboard="0"
     inkscape:deskcolor="#d1d1d1"
     inkscape:document-units="mm"
     inkscape:zoom="0.46745865"
     inkscape:cx="667.43872"
     inkscape:cy="516.62324"
     inkscape:window-width="1440"
     inkscape:window-height="936"
     inkscape:window-x="1450"
     inkscape:window-y="25"
     inkscape:window-maximized="0"
     inkscape:current-layer="layer1"
     showguides="true" /><defs
     id="defs1" /><g
     inkscape:label="Livello 1"
     inkscape:groupmode="layer"
     id="layer1"><ellipse
       style="fill:none;fill-opacity:1;fill-rule:evenodd;stroke:#5ba9bb;stroke-width:6.417;stroke-dasharray:none;stroke-opacity:1"
       id="path15"
       cx="132.29167"
       cy="132.29167"
       rx="128.89732"
       ry="127.32065" /><g
       id="g15"
       transform="translate(3.3062863,18.647451)"><path
         style="fill:#5ba9bb;fill-opacity:1;stroke:#417c9b;stroke-width:0.264583px;stroke-linecap:butt;stroke-linejoin:miter;stroke-opacity:1"
         d="m 133.75472,58.35578 c 14.43273,-24.195858 67.25403,0 60.40095,49.49333 -0.6263,4.52314 2.24957,4.75271 3.27229,0 10.33744,-48.03926 -43.59073,-79.269016 -65.99111,-55.083489 -1.61404,1.742666 -0.10385,-6.73191 -2.47859,-6.680917 -2.33964,0.05024 -0.73008,8.518467 -2.15716,6.680917 -16.36995,-21.078448 -76.257678,0 -67.08187,55.492529 0.869527,5.25864 4.134047,5.30346 3.272288,-0.13635 -7.491029,-47.286754 47.366212,-75.694213 61.082682,-49.76602 -2.28817,1.28917 -25.7355,33.373213 -2.9996,50.85678 5.16036,3.96824 9.788,4.24235 15.54337,0 23.19553,-17.097683 0,-48.803924 -2.86325,-50.85678 z"
         id="path1"
         sodipodi:nodetypes="csssassscssc" /><ellipse
         style="opacity:1;fill:#417c9b;fill-opacity:1;fill-rule:evenodd;stroke:#417c9b;stroke-width:0.335057;stroke-dasharray:none;stroke-opacity:1"
         id="path2"
         cx="114.41084"
         cy="58.86834"
         rx="3.635412"
         ry="3.3726625" /><ellipse
         style="opacity:1;fill:#417c9b;fill-opacity:1;fill-rule:evenodd;stroke:#417c9b;stroke-width:0.335057;stroke-dasharray:none;stroke-opacity:1"
         id="ellipse2"
         cx="143.39818"
         cy="58.86834"
         rx="3.635412"
         ry="3.3726625" /><path
         style="fill:#417c9b;fill-opacity:1;stroke:#417c9b;stroke-width:0.264583px;stroke-linecap:butt;stroke-linejoin:miter;stroke-opacity:1"
         d="m 109.11292,74.368559 c -1.8252,0.782159 -9.577335,-5.536701 -14.444285,-4.294249 -8.363346,2.135025 -13.615789,9.55468 -14.553761,10.554682 -1.898855,2.024431 -4.211754,0.400694 -3.123089,-1.731396 3.123089,-6.116399 10.476498,-11.815884 17.67685,-13.898306 3.087445,-0.892924 6.724235,1.4519 15.939265,5.36781 0.65266,0.277348 -0.26985,3.476451 -1.49498,4.001459 z"
         id="path3"
         sodipodi:nodetypes="sssssss" /><path
         style="fill:#417c9b;fill-opacity:1;stroke:#417c9b;stroke-width:0.264583px;stroke-linecap:butt;stroke-linejoin:miter;stroke-opacity:1"
         d="m 149.24028,74.368559 c 1.8252,0.782159 9.57734,-5.536701 14.44429,-4.294249 8.36335,2.135025 13.61579,9.55468 14.55376,10.554682 1.89886,2.024431 4.21175,0.400694 3.12309,-1.731396 -3.12309,-6.116399 -10.4765,-11.815884 -17.67685,-13.898306 -3.08745,-0.892924 -6.72424,1.4519 -15.93927,5.36781 -0.65266,0.277348 0.26985,3.476451 1.49498,4.001459 z"
         id="path4"
         sodipodi:nodetypes="sssssss" /><path
         style="fill:#5ba9bb;fill-opacity:1;stroke:#5ba9bb;stroke-width:0.235944px;stroke-linecap:butt;stroke-linejoin:miter;stroke-opacity:1"
         d="m 106.84155,84.359768 c -1.44186,0.939816 -8.713286,-4.025778 -12.658398,-2.303137 -6.779263,2.960181 -10.313357,10.467004 -10.983148,11.505617 -1.355944,2.102597 -3.494295,0.864069 -2.832514,-1.24395 1.898471,-6.047347 7.40416,-12.2013 13.211635,-14.97681 2.490192,-1.190114 5.827722,0.563783 14.043415,3.126009 0.58188,0.181471 0.18683,3.261439 -0.78099,3.892271 z"
         id="path5"
         sodipodi:nodetypes="sssssss" /><path
         style="fill:#5ba9bb;fill-opacity:1;stroke:#417c9b;stroke-width:0.235944px;stroke-linecap:butt;stroke-linejoin:miter;stroke-opacity:1"
         d="m 151.27814,84.315051 c 1.44186,0.939816 8.71329,-4.025778 12.6584,-2.303137 6.77926,2.960181 10.31336,10.467004 10.98315,11.505617 1.35594,2.102597 3.49429,0.864069 2.83251,-1.24395 -1.89847,-6.047347 -7.40416,-12.2013 -13.21163,-14.97681 -2.4902,-1.190114 -5.82773,0.563783 -14.04342,3.126009 -0.58188,0.181471 -0.18683,3.261439 0.78099,3.892271 z"
         id="path6"
         sodipodi:nodetypes="sssssss" /><path
         style="fill:#417c9b;fill-opacity:1;stroke:#417c9b;stroke-width:0.264583px;stroke-linecap:butt;stroke-linejoin:miter;stroke-opacity:1"
         d="m 107.07053,90.874991 c -13.001055,-1.704158 -22.63838,4.840391 -26.392733,15.295789 -0.336539,0.93722 7.547426,-3.96469 16.695406,-1.69953 5.213027,-6.698157 9.697327,-5.918537 9.697327,-6.898102 z"
         id="path7"
         sodipodi:nodetypes="cscsc" /><path
         style="fill:#417c9b;fill-opacity:1;stroke:#417c9b;stroke-width:0.264583px;stroke-linecap:butt;stroke-linejoin:miter;stroke-opacity:1"
         d="m 151.14833,90.675046 c 13.00105,-1.704158 22.63838,5.040336 26.39273,15.495734 0.33654,0.93722 -7.54742,-3.96469 -16.6954,-1.69953 -5.21303,-6.698157 -9.69733,-5.918537 -9.69733,-6.898102 z"
         id="path8"
         sodipodi:nodetypes="cscsc" /><path
         style="fill:#417c9b;fill-opacity:1;stroke:#417c9b;stroke-width:0.264583px;stroke-linecap:butt;stroke-linejoin:miter;stroke-opacity:1"
         d="m 111.46932,104.37128 c 9.69977,15.29579 25.59052,15.29579 34.79043,0 1.38363,-2.30042 1.13732,4.40293 0.49986,5.85401 -1.46785,3.3413 -4.00315,7.07988 -7.09804,9.44178 -6.57012,5.01404 -13.57919,4.93641 -20.49437,0 -3.36917,-2.40509 -6.57669,-6.43867 -7.79785,-9.44178 -0.56375,-1.38638 -1.21275,-7.92407 0.1,-5.85401 z"
         id="path9"
         sodipodi:nodetypes="ssssssss" /><path
         style="fill:#5ba9bb;fill-opacity:1;stroke:#417c9b;stroke-width:0.261419px;stroke-linecap:butt;stroke-linejoin:miter;stroke-opacity:1"
         d="m 147.23734,150.68813 c 12.19755,7.43911 47.21561,-23.22602 31.12686,-38.64499 -15.0548,-14.42805 -48.16576,16.84069 -35.22604,33.18005 2.04279,2.57948 4.94248,-15.91873 16.29673,-17.76108 8.79245,-1.42668 -8.30393,19.42008 -12.19755,23.22602 z"
         id="path10"
         sodipodi:nodetypes="csssc" /><path
         style="fill:#5ba9bb;fill-opacity:1;stroke:#417c9b;stroke-width:0.260878px;stroke-linecap:butt;stroke-linejoin:miter;stroke-opacity:1"
         d="m 110.83881,150.51211 c -12.197707,7.40824 -47.21622,-23.12963 -31.127257,-38.4846 15.054993,-14.368178 48.166377,16.77079 35.226487,33.04234 -2.04281,2.56878 -4.94254,-15.85266 -16.296937,-17.68737 -8.792567,-1.42075 8.304037,19.33949 12.197707,23.12963 z"
         id="path11"
         sodipodi:nodetypes="csssc" /><path
         style="fill:#5ba9bb;fill-opacity:1;stroke:#5ba9bb;stroke-width:0.264583px;stroke-linecap:butt;stroke-linejoin:miter;stroke-opacity:1"
         d="m 121.66652,125.86539 c 5.63439,2.21982 9.03685,1.99945 15.19581,0 -2.29936,5.8822 0.38461,7.33711 -2.29936,7.89783 -3.83175,0.8005 -6.31575,0.88097 -9.99725,0 -2.83975,-0.67954 -0.31982,-2.01563 -2.8992,-7.89783 z"
         id="path12"
         sodipodi:nodetypes="ccssc" /><path
         style="fill:#417c9b;fill-opacity:1;stroke:#417c9b;stroke-width:0.210089px;stroke-linecap:butt;stroke-linejoin:miter;stroke-opacity:1"
         d="m 123.51343,138.31711 c 4.26248,1.85006 6.83647,1.66639 11.49579,0 -1.73948,4.90237 2.03045,6.11494 0,6.58226 -2.89877,0.66715 -8.01701,0.73422 -10.80211,0 -2.14829,-0.56635 1.25765,-1.67989 -0.69368,-6.58226 z"
         id="path13"
         sodipodi:nodetypes="ccssc" /><path
         style="fill:#5ba9bb;fill-opacity:1;stroke:#5ba9bb;stroke-width:0.264583px;stroke-linecap:butt;stroke-linejoin:miter;stroke-opacity:1"
         d="m 122.36632,149.15895 c 0,0 9.32369,1.49959 14.09613,-0.19994 0.56861,-0.20249 0.77369,1.11459 0.62484,1.69953 -2.89615,11.3814 -29.46376,14.47519 -37.614666,9.7973 -0.578773,-0.33216 -0.567346,-1.99959 0.09997,-1.99945 20.141676,0.004 19.904216,-4.28268 22.793726,-9.29744 z"
         id="path14"
         sodipodi:nodetypes="ssssss" /><path
         style="fill:#5ba9bb;fill-opacity:1;stroke:#5ba9bb;stroke-width:0.225009px;stroke-linecap:butt;stroke-linejoin:miter;stroke-opacity:1"
         d="m 115.30805,168.25044 c 5.3868,-4.83467 12.06664,-2.10815 14.33221,3.45175 2.31913,5.69133 -1.32392,15.60132 -6.03975,17.64846 -2.53654,1.10112 -5.05281,0.0214 -6.03393,-3.57345 -0.46585,-1.70685 -3.28484,-16.60564 -2.25853,-17.52676 z"
         id="path16"
         sodipodi:nodetypes="sasss" /><path
         style="fill:#417c9b;fill-opacity:1;stroke:#417c9b;stroke-width:0.243266px;stroke-linecap:butt;stroke-linejoin:miter;stroke-opacity:1"
         d="m 102.61238,167.64542 h 9.96502 c 0,0 2.9793,15.57671 1.62057,18.20848 -4.69541,9.09469 -9.28989,9.07629 -14.16188,-0.10008 -1.659004,-3.12472 2.57629,-18.1084 2.57629,-18.1084 z"
         id="path17"
         sodipodi:nodetypes="ccssc" /><path
         style="fill:#5ba9bb;fill-opacity:1;stroke:#5ba9bb;stroke-width:0.225009px;stroke-linecap:butt;stroke-linejoin:miter;stroke-opacity:1"
         d="m 99.436966,167.91108 c -5.386802,-4.83467 -12.066647,-2.10815 -14.332218,3.45175 -2.319127,5.69133 1.323921,15.60132 6.039754,17.64846 2.536543,1.10112 5.052811,0.0214 6.033926,-3.57345 0.46585,-1.70685 3.284822,-16.60564 2.258538,-17.52676 z"
         id="path18"
         sodipodi:nodetypes="sasss" /></g></g></svg>
