<?xml version="1.0" encoding="UTF-8" standalone="no"?>
<!-- Created with Inkscape (http://www.inkscape.org/) -->

<svg
   width="1000"
   height="1000"
   viewBox="0 0 264.58333 264.58333"
   version="1.1"
   id="svg1"
   xml:space="preserve"
   inkscape:version="1.3 (0e150ed, 2023-07-21)"
   sodipodi:docname="logo-astice-prova.svg"
   inkscape:export-filename="logo-astice-prova.png"
   inkscape:export-xdpi="300"
   inkscape:export-ydpi="300"
   xmlns:inkscape="http://www.inkscape.org/namespaces/inkscape"
   xmlns:sodipodi="http://sodipodi.sourceforge.net/DTD/sodipodi-0.dtd"
   xmlns="http://www.w3.org/2000/svg"
   xmlns:svg="http://www.w3.org/2000/svg"><sodipodi:namedview
     id="namedview1"
     pagecolor="#ffffff"
     bordercolor="#666666"
     borderopacity="1.0"
     inkscape:showpageshadow="2"
     inkscape:pageopacity="0.0"
     inkscape:pagecheckerboard="0"
     inkscape:deskcolor="#d1d1d1"
     inkscape:document-units="mm"
     inkscape:zoom="0.50646034"
     inkscape:cx="355.40789"
     inkscape:cy="490.66034"
     inkscape:window-width="1072"
     inkscape:window-height="972"
     inkscape:window-x="1496"
     inkscape:window-y="25"
     inkscape:window-maximized="0"
     inkscape:current-layer="layer1"
     showgrid="false" /><defs
     id="defs1" /><g
     inkscape:label="Livello 1"
     inkscape:groupmode="layer"
     id="layer1"><path
       style="fill:#417c9b;fill-opacity:1;stroke:#417c9b;stroke-width:0.264583px;stroke-linecap:butt;stroke-linejoin:miter;stroke-opacity:1"
       d="m 131.39254,67.950208 c 15.54136,-31.520286 44.92244,-36.918042 55.80267,-35.599126 4.65422,0.564191 3.76574,3.291249 0,3.085022 -32.27613,-1.767565 -48.17087,25.869409 -51.88191,32.724779 -0.1088,0.200985 -4.08176,0.115859 -3.92076,-0.210675 z"
       id="path1"
       sodipodi:nodetypes="sssss" /><path
       style="fill:#5ba9bb;fill-opacity:1;stroke:#417c9b;stroke-width:0.265;stroke-linecap:butt;stroke-linejoin:miter;stroke-dasharray:none;stroke-opacity:1"
       d="m 76.242215,121.14839 c -4.751775,-7.09937 -1.04944,-11.794 1.930154,-14.61402 14.582346,-13.801399 32.567861,-27.498899 44.926001,-32.696146 9.2575,-3.893265 12.18452,0.194983 12.76752,-0.392223 45.53275,-45.861177 79.06847,-13.243619 79.20957,-12.82174 0.55335,1.654419 -0.99944,2.294563 -1.79228,1.654419 -34.39263,-27.768955 -72.31262,11.32297 -73.07014,11.99453 -4.34715,3.853882 -5.20265,8.057576 -6.02344,10.513663 -10.93434,32.719537 -26.00367,41.819937 -28.71933,43.668537 -10.962961,7.46269 -19.249249,1.41813 -19.990888,0.96507 -5.668513,-3.46284 -7.172731,-5.18773 -9.237167,-8.27209 z"
       id="path2"
       sodipodi:nodetypes="sssssssssss" /><path
       style="fill:#417c9b;fill-opacity:1;stroke:#417c9b;stroke-width:0.264583px;stroke-linecap:butt;stroke-linejoin:miter;stroke-opacity:1"
       d="m 86.266684,143.78365 c 0.783913,-0.60714 0.121997,-4.8062 0.325327,-7.72647 0.07891,-1.13339 0.309028,-1.44662 -1.992617,-2.76526 -5.351355,-3.06585 -6.953816,-4.44513 -11.54903,-10.12574 -1.384512,-1.71154 -7.673451,-6.84887 -15.371599,1.99262 -2.903632,3.33488 -5.970715,10.37107 -5.123865,10.97971 1.314632,0.94484 11.091413,2.34765 25.090678,6.42516 2.786539,0.81162 7.853313,1.81463 8.621106,1.21998 z"
       id="path8"
       sodipodi:nodetypes="ssssssss" /><path
       style="fill:#5ba9bb;fill-opacity:1;stroke:#417c9b;stroke-width:0.264583px;stroke-linecap:butt;stroke-linejoin:miter;stroke-opacity:1"
       d="m 50.196293,145.20694 c 0.835561,-5.77997 1.522944,-5.15802 8.092456,-4.06656 6.103603,1.01405 21.041124,5.70989 24.887352,6.14051 4.732963,0.52989 3.332926,2.34715 1.748619,3.94456 -1.980788,1.99716 -4.009219,3.35219 -6.425165,4.18856 -12.45505,4.31178 -22.115097,4.35589 -27.815272,6.05917 -0.48799,0.14582 -1.233951,-11.10608 -0.48799,-16.26624 z"
       id="path9"
       sodipodi:nodetypes="sssssss" /><path
       style="fill:#417c9b;fill-opacity:1;stroke:#417c9b;stroke-width:0.264583px;stroke-linecap:butt;stroke-linejoin:miter;stroke-opacity:1"
       d="m 86.876668,156.38998 c 0.949472,-0.37514 -0.58059,6.46513 -2.439934,8.33645 -6.742523,6.78597 -17.077288,15.70696 -25.903992,16.83556 -1.273855,0.16288 -8.721273,-15.06055 -7.116479,-15.69692 14.301202,-5.67104 11.47929,0 35.460405,-9.47509 z"
       id="path10"
       sodipodi:nodetypes="sssss" /><path
       style="fill:#5ba9bb;fill-opacity:1;stroke:#417c9b;stroke-width:0.264583px;stroke-linecap:butt;stroke-linejoin:miter;stroke-opacity:1"
       d="m 61.094676,185.83188 c 10.918307,-5.58735 17.385211,-9.23605 24.684022,-16.38824 4.186289,-4.10219 6.955541,0 6.855191,2.68393 -0.184009,4.9215 -3.173171,8.89629 -5.838551,12.72833 -2.156402,3.10028 -6.636373,6.99054 -8.011123,8.01112 -8.356396,6.20357 -18.602718,-6.56783 -17.689539,-7.03514 z"
       id="path11"
       sodipodi:nodetypes="sssass" /><path
       style="fill:#417c9b;fill-opacity:1;stroke:#417c9b;stroke-width:0.264583px;stroke-linecap:butt;stroke-linejoin:miter;stroke-opacity:1"
       d="m 96.392772,177.10527 c 4.150878,-0.22659 5.692308,1.82697 6.276308,3.63554 0.584,1.80858 0.41948,4.01778 0.15794,5.93419 -0.5343,3.91504 -1.58993,6.46499 -3.527378,9.43942 -1.93745,2.97443 -3.35082,5.3282 -6.302136,6.7932 -1.394139,0.69204 -3.206426,0.72334 -4.8352,0.67926 -1.65393,-0.0448 -4.398045,-0.58128 -7.878504,-2.63627 -1.3703,-0.80908 -2.77294,-1.95385 -2.769206,-2.48493 0.0087,-1.23517 3.369983,-2.5759 4.393669,-3.2805 1.378266,-0.94865 2.095684,-1.62562 3.246451,-2.78274 2.301534,-2.31424 4.460885,-4.65833 6.068476,-6.92821 3.215182,-4.53975 4.59833,-8.33778 5.16958,-8.36896 z"
       id="path12"
       sodipodi:nodetypes="ssssssssssss" /><path
       style="fill:#5ba9bb;fill-opacity:1;stroke:#417c9b;stroke-width:0.264583px;stroke-linecap:butt;stroke-linejoin:miter;stroke-opacity:1"
       d="m 97.829852,204.99793 c -0.60992,-1.01118 8.117578,-5.50465 9.373758,-21.22978 0.0674,-0.84307 2.46589,-1.87485 4.03844,-1.67624 1.89448,0.23926 3.68787,1.67624 4.48614,3.99519 1.00261,2.91256 1.4536,7.07452 1.24112,9.30844 -0.52374,5.50624 -3.76051,10.56951 -8.00199,12.18262 -3.00488,1.14282 -9.697058,-0.19219 -11.137468,-2.58023 z"
       id="path13"
       sodipodi:nodetypes="sssssss" /><path
       style="fill:#5ba9bb;fill-opacity:1;stroke:#417c9b;stroke-width:0.264583px;stroke-linecap:butt;stroke-linejoin:miter;stroke-opacity:1"
       d="m 120.95581,196.67618 c 7.804,5.63108 17.10496,8.66986 25.6578,11.13956 5.08519,1.46839 8.12439,2.67084 9.19935,6.22211 0.34621,1.14375 0.40237,2.54772 -0.20072,3.57937 -2.22959,3.81394 -5.94279,6.98199 -9.80148,7.694 -4.81919,0.88923 -10.49559,-0.49145 -14.21717,-3.67974 -5.70457,-4.88713 -8.14354,-9.02084 -12.74526,-15.05347 -1.69464,-2.22158 -0.62881,-2.7708 0,-3.91389 1.82823,-3.32351 1.67783,-6.29796 2.10748,-5.98794 z"
       id="path14"
       sodipodi:nodetypes="sssssssss" /><path
       style="fill:#417c9b;fill-opacity:1;stroke:#417c9b;stroke-width:0.264583px;stroke-linecap:butt;stroke-linejoin:miter;stroke-opacity:1"
       d="m 124.50174,193.9331 c 0.0451,-0.74786 2.85203,-1.50703 4.41569,-1.77296 10.4327,-1.77425 16.48469,-4.50208 24.68768,-6.89114 4.09082,-1.19142 7.04657,2.60997 8.32959,6.69042 1.09724,3.48962 0.69967,8.69011 -1.87332,11.70826 -1.37757,1.6159 -4.73525,2.82561 -5.92104,2.442 -14.34252,-4.63984 -18.13912,-5.66352 -26.40533,-9.58759 -1.25122,-0.59397 -3.27527,-1.89257 -3.23327,-2.58899 z"
       id="path15"
       sodipodi:nodetypes="ssssssss" /><path
       style="fill:#5ba9bb;fill-opacity:1;stroke:#417c9b;stroke-width:0.264583px;stroke-linecap:butt;stroke-linejoin:miter;stroke-opacity:1"
       d="m 119.18285,183.49603 c -0.44407,0.4059 1.61552,6.96252 2.20784,6.89114 4.37868,-0.52767 11.43676,-3.28595 20.07129,-5.05127 16.63763,-3.40154 15.62302,-9.83577 14.38442,-12.91253 -0.84241,-2.09259 -3.11457,-4.06243 -4.71675,-5.25199 -3.14807,-2.33733 -7.55616,-2.1375 -11.7417,-0.70249 -8.33156,2.85648 -13.50227,10.90042 -20.2051,17.02714 z"
       id="path16"
       sodipodi:nodetypes="sssssss" /><path
       style="fill:#417c9b;fill-opacity:1;stroke:#417c9b;stroke-width:0.264583px;stroke-linecap:butt;stroke-linejoin:miter;stroke-opacity:1"
       d="m 93.016379,138.07383 c 1.990272,2.2098 6.598313,6.69503 8.822311,8.19883 3.84327,2.5987 6.89752,5.31193 7.5131,9.36524 0.77463,5.10057 0.75781,9.38846 -0.34841,11.93694 -1.53034,3.52555 -4.06761,1.78565 -3.88508,-0.2475 0.28116,-3.1318 0.96199,-6.42229 0.20182,-9.49559 -1.30099,-5.25975 -3.5405,-6.13349 -4.79327,-7.16986 -3.692218,-3.05445 -8.378025,-5.3346 -10.236504,-9.6366 -0.246786,-0.57126 -0.349346,-1.35189 0,-1.86686 0.549016,-0.80931 2.105642,-1.77342 2.726033,-1.0846 z"
       id="path17"
       sodipodi:nodetypes="sssssssaas" /><path
       style="fill:#549fb0;fill-opacity:1;stroke:#2b72b1;stroke-width:0.264583px;stroke-linecap:butt;stroke-linejoin:miter;stroke-opacity:1"
       d="m 102.34497,134.95064 c 3.01278,1.3861 5.54253,2.75561 9.29908,4.24293 3.85882,1.52781 5.59205,2.53726 7.34423,4.90225 1.97393,2.6643 3.61867,4.90292 4.0056,8.74583 0.27393,2.72068 0.0944,6.77364 -0.0707,8.20299 -0.46188,3.99878 -3.93492,3.42739 -3.9349,0.56123 2e-5,-2.63075 -0.0233,-5.26862 -0.27267,-7.88753 -0.29657,-3.11519 -1.4562,-5.05514 -3.14683,-6.95822 -1.68205,-1.89342 -3.12172,-3.19465 -6.50582,-3.92471 -4.36263,-0.94117 -8.15385,-2.55178 -11.243758,-6.25831 -0.39822,-0.47769 4.183718,-1.78383 4.525768,-1.62646 z"
       id="path18"
       sodipodi:nodetypes="sssssssasss" /><path
       style="fill:#417c9b;fill-opacity:1;stroke:#417c9b;stroke-width:0.264583px;stroke-linecap:butt;stroke-linejoin:miter;stroke-opacity:1"
       d="m 110.22974,129.22269 c 0.23674,-0.66776 7.09147,0.41259 10.64268,0.84858 2.99665,0.36792 5.46055,1.29616 7.56655,3.42971 6.65075,6.73776 6.82403,9.48875 7.17761,12.83485 0.18576,1.75798 0.16485,4.22538 0,5.48044 -0.66991,5.10016 -5.13236,3.68229 -4.349,0.14143 0.38965,-1.76127 -0.006,-3.53965 -0.14143,-5.40973 -0.31973,-4.42549 -2.62263,-7.16652 -5.44509,-9.46462 -0.96579,-0.78637 -2.11153,-1.32519 -3.21755,-1.77913 -7.34053,-3.01276 -9.58176,0.3557 -15.30989,-2.72254 -0.51678,-0.27771 2.6853,-2.2566 3.07612,-3.35899 z"
       id="path19"
       sodipodi:nodetypes="sssssssssss" /><path
       style="fill:#549fb0;fill-opacity:1;stroke:#2b72b1;stroke-width:0.264583px;stroke-linecap:butt;stroke-linejoin:miter;stroke-opacity:1"
       d="m 119.03381,120.94899 c 5.80496,-0.19596 10.18502,-0.25334 15.09775,0 4.13759,0.21337 5.21526,1.5772 7.17762,3.11147 2.28756,1.78853 4.0598,3.9519 5.37437,6.22295 2.29825,3.97046 2.53692,7.92306 2.29825,10.35981 -0.31532,3.21937 -3.88114,1.94856 -4.1015,0.0354 -0.3275,-2.8433 0,-5.87382 -1.8386,-8.38713 -1.25868,-1.72058 -2.87742,-3.1755 -4.56114,-4.48308 -3.18702,-2.47504 -4.02716,-2.51044 -6.01081,-2.47504 -4.59579,0.082 -9.20141,0.1952 -13.78951,-0.0354 -0.96523,-0.0485 -3.58905,-0.04 -2.82862,-0.63644 1.4313,-1.12265 2.32784,-3.6837 3.18219,-3.71254 z"
       id="path20"
       sodipodi:nodetypes="ssssssssssss" /><path
       style="fill:#417c9b;fill-opacity:1;stroke:#417c9b;stroke-width:0.264583px;stroke-linecap:butt;stroke-linejoin:miter;stroke-opacity:1"
       d="m 127.69646,110.41239 c 4.28103,-0.29232 7.81926,-0.48047 11.7034,-0.56573 2.53511,-0.0556 6.57653,1.25206 8.34442,2.43969 3.93172,2.64124 6.76838,6.1886 7.74334,8.36119 2.95177,6.57769 -1.95718,6.08415 -2.89933,3.05935 -0.95156,-3.05504 -3.7722,-5.71649 -6.6119,-7.42512 -2.64437,-1.5911 -4.64214,-1.72766 -7.07153,-1.76789 -5.85675,-0.097 -11.43746,0.81579 -13.50666,0.38894 -0.35049,-0.0723 -0.85342,-0.67111 -0.31822,-1.02538 1.65195,-1.09349 2.32511,-3.44515 2.61648,-3.46505 z"
       id="path21"
       sodipodi:nodetypes="ssssssssss" /><path
       style="fill:#5ba9bb;fill-opacity:1;stroke:#417c9b;stroke-width:0.226037px;stroke-linecap:butt;stroke-linejoin:miter;stroke-opacity:1"
       d="m 190.44,75.981873 c 1.0664,-0.209227 2.15391,-0.949465 0.20758,-2.425386 -8.36431,-6.342701 -26.63588,-3.964419 -38.05509,1.363903 -7.68729,3.586968 -13.76282,11.109379 -13.90401,17.523327 -0.13067,5.93666 4.97338,12.330853 12.203,14.055003 11.28079,2.69032 27.1916,-1.67461 36.50014,-8.685143 5.81957,-4.3829 8.90271,-12.112947 7.21658,-17.191141 -0.46187,-1.391019 -6.04741,3.388903 -13.76777,5.84205 -0.88607,0.281548 -0.49279,1.61299 -1.35917,1.937071 -0.83784,0.313373 -1.64668,-0.681246 -2.51522,-0.440623 -1.19671,0.331544 -1.32682,1.915233 -2.51736,2.264644 -0.88389,0.259626 -1.69779,-0.420578 -2.61003,-0.366831 -5.35617,0.315607 -10.60476,0.80093 -6.45448,-4.098265 0.34481,-0.407029 2.9586,-2.114573 5.45869,-2.864951 0.61493,-0.184567 1.3281,-0.0068 1.90831,-0.260258 1.09921,-0.480124 1.41945,-1.71394 2.52258,-2.187935 1.1835,-0.508525 2.20166,-0.04631 3.88128,-0.48324 3.20239,-0.83305 5.78353,-2.902816 11.28497,-3.982225 z"
       id="path23"
       sodipodi:nodetypes="ssaaaassaaasssaass" /></g></svg>
